<svg width="33" height="25" viewBox="0 0 33 25" fill="none" xmlns="http://www.w3.org/2000/svg">
<path d="M11.3015 0.435913H17.7664L15.1714 7.6831C10.604 8.48519 7.11061 12.9013 7.11061 18.2288C7.11061 20.6322 7.82156 22.8501 9.02125 24.6343H0.436882L8.28466 2.71761C8.77807 1.33954 9.97287 0.435913 11.3015 0.435913Z" fill="#929C9A"/>
<path d="M21.8579 0.435913H15.393L17.9771 7.65252C22.6354 8.3658 26.224 12.8291 26.224 18.2288C26.224 20.6322 25.513 22.8501 24.3134 24.6343H32.7225L24.8748 2.71762C24.3814 1.33954 23.1866 0.435913 21.8579 0.435913Z" fill="#929C9A"/>
<path d="M10.1485 23.9368C9.04374 22.3645 8.38495 20.3826 8.38495 18.2288C8.38495 13.1189 12.0932 8.9765 16.6674 8.9765C21.2417 8.9765 24.9499 13.1189 24.9499 18.2288C24.9499 20.3826 24.2912 22.3645 23.1864 23.9368C21.3727 22.5875 19.1149 21.7874 16.6674 21.7874C14.22 21.7874 11.9622 22.5875 10.1485 23.9368Z" fill="#929C9A"/>
</svg>
