<svg width="9.000000" height="9.000000" viewBox="0 0 9 9" fill="none" xmlns="http://www.w3.org/2000/svg" xmlns:xlink="http://www.w3.org/1999/xlink">
	<desc>
			Created with Pixso.
	</desc>
	<defs/>
	<path id="Vector" d="M1.2 5.03L1.5 5.03C1.5 4.97 1.48 4.91 1.45 4.86C1.41 4.81 1.37 4.78 1.32 4.75L1.2 5.03ZM6.8 5.03L6.68 4.75C6.62 4.78 6.58 4.81 6.54 4.86C6.51 4.91 6.5 4.97 6.5 5.03L6.8 5.03ZM5.5 1.99C5.5 2.07 5.53 2.15 5.58 2.21C5.64 2.26 5.72 2.29 5.8 2.29C5.87 2.29 5.95 2.26 6.01 2.21C6.06 2.15 6.1 2.07 6.1 1.99L5.5 1.99ZM1.9 1.99C1.9 2.07 1.93 2.15 1.98 2.21C2.04 2.26 2.12 2.29 2.2 2.29C2.27 2.29 2.35 2.26 2.41 2.21C2.46 2.15 2.5 2.07 2.5 1.99L1.9 1.99ZM2 0.89C1.39 0.89 0.8 1.14 0.37 1.57C-0.06 2 -0.3 2.58 -0.3 3.19L0.3 3.19C0.3 2.74 0.47 2.31 0.79 1.99C1.11 1.67 1.54 1.49 2 1.49L2 0.89ZM6 1.49C6.45 1.49 6.88 1.67 7.2 1.99C7.52 2.31 7.7 2.74 7.7 3.19L8.3 3.19C8.3 2.58 8.05 2 7.62 1.57C7.19 1.14 6.61 0.89 6 0.89L6 1.49ZM5.2 7.69L2.8 7.69L2.8 8.29L5.2 8.29L5.2 7.69ZM2.8 7.69C2.41 7.69 2.15 7.69 1.96 7.67C1.77 7.64 1.69 7.6 1.64 7.55L1.22 7.97C1.4 8.15 1.63 8.23 1.88 8.26C2.12 8.29 2.43 8.29 2.8 8.29L2.8 7.69ZM0.9 6.39C0.9 6.76 0.89 7.07 0.93 7.31C0.96 7.56 1.04 7.79 1.22 7.97L1.64 7.55C1.59 7.5 1.55 7.42 1.52 7.23C1.5 7.04 1.5 6.78 1.5 6.39L0.9 6.39ZM6.5 6.39C6.5 6.78 6.49 7.04 6.47 7.23C6.44 7.42 6.4 7.5 6.35 7.55L6.77 7.97C6.96 7.79 7.03 7.56 7.06 7.31C7.1 7.07 7.1 6.76 7.1 6.39L6.5 6.39ZM5.2 8.29C5.56 8.29 5.87 8.29 6.11 8.26C6.36 8.23 6.59 8.15 6.77 7.97L6.35 7.55C6.3 7.6 6.22 7.64 6.03 7.67C5.84 7.69 5.58 7.69 5.2 7.69L5.2 8.29ZM2 1.49C2.08 1.49 2.16 1.5 2.25 1.51L2.33 0.92C2.22 0.9 2.11 0.89 2 0.89L2 1.49ZM4 -0.31C3.56 -0.31 3.13 -0.17 2.77 0.09C2.41 0.34 2.15 0.7 2.01 1.12L2.57 1.31C2.67 1.02 2.87 0.76 3.12 0.58C3.38 0.39 3.68 0.29 4 0.29L4 -0.31ZM2.01 1.12C1.93 1.34 1.89 1.56 1.9 1.79L2.5 1.79C2.5 1.62 2.52 1.46 2.57 1.31L2.01 1.12ZM6 0.89C5.88 0.89 5.77 0.9 5.66 0.92L5.74 1.51C5.83 1.5 5.91 1.49 6 1.49L6 0.89ZM4 0.29C4.31 0.29 4.61 0.39 4.87 0.58C5.12 0.76 5.32 1.02 5.42 1.31L5.98 1.12C5.84 0.7 5.58 0.34 5.22 0.09C4.86 -0.17 4.43 -0.31 4 -0.31L4 0.29ZM5.42 1.31C5.47 1.46 5.5 1.62 5.5 1.79L6.1 1.79C6.1 1.56 6.06 1.33 5.98 1.12L5.42 1.31L5.42 1.31ZM1.5 6.39L1.5 5.03L0.9 5.03L0.9 6.39L1.5 6.39ZM1.32 4.75C1.01 4.62 0.75 4.4 0.57 4.13C0.39 3.85 0.29 3.53 0.3 3.19L-0.3 3.19C-0.3 3.64 -0.17 4.08 0.07 4.45C0.32 4.83 0.66 5.12 1.08 5.3L1.32 4.75ZM6.5 5.03L6.5 6.39L7.1 6.39L7.1 5.03L6.5 5.03ZM7.7 3.19C7.7 3.53 7.6 3.85 7.42 4.13C7.24 4.4 6.98 4.62 6.68 4.75L6.92 5.3C7.33 5.12 7.67 4.83 7.92 4.45C8.16 4.08 8.3 3.64 8.3 3.19L7.7 3.19ZM5.5 1.79L5.5 1.99L6.1 1.99L6.1 1.79L5.5 1.79ZM1.9 1.79L1.9 1.99L2.5 1.99L2.5 1.79L1.9 1.79Z" fill="#312C27" fill-opacity="1.000000" fill-rule="nonzero"/>
	<g opacity="0.500000">
		<path id="Vector" d="M4 3.19L3.79 3.41C3.84 3.46 3.92 3.49 4 3.49C4.07 3.49 4.15 3.46 4.2 3.41L4 3.19ZM3.79 4.42C3.62 4.3 3.44 4.14 3.3 3.98C3.15 3.81 3.09 3.68 3.09 3.59L2.5 3.59C2.5 3.9 2.67 4.18 2.84 4.38C3.03 4.59 3.25 4.77 3.43 4.9L3.79 4.42ZM3.09 3.59C3.09 3.36 3.2 3.26 3.29 3.23C3.39 3.2 3.58 3.21 3.79 3.41L4.2 2.98C3.87 2.66 3.46 2.54 3.09 2.67C2.72 2.8 2.5 3.16 2.5 3.59L3.09 3.59ZM4.56 4.9C4.74 4.77 4.96 4.59 5.15 4.38C5.32 4.18 5.5 3.9 5.5 3.59L4.9 3.59C4.9 3.68 4.84 3.81 4.69 3.98C4.55 4.15 4.37 4.3 4.2 4.42L4.56 4.9L4.56 4.9ZM5.5 3.59C5.5 3.16 5.27 2.8 4.9 2.67C4.53 2.54 4.12 2.66 3.79 2.98L4.2 3.41C4.41 3.21 4.6 3.2 4.7 3.23C4.79 3.26 4.9 3.36 4.9 3.59L5.5 3.59ZM3.43 4.9C3.58 5.01 3.75 5.15 4 5.15L4 4.55C3.99 4.55 3.98 4.55 3.96 4.54C3.9 4.5 3.84 4.46 3.79 4.42L3.43 4.9L3.43 4.9ZM4.2 4.42C4.15 4.46 4.09 4.5 4.03 4.54C4.01 4.55 4 4.55 4 4.55L4 5.15C4.24 5.15 4.41 5.01 4.56 4.9L4.2 4.42Z" fill="#312C27" fill-opacity="1.000000" fill-rule="nonzero"/>
	</g>
	<g opacity="0.500000">
		<path id="Vector" d="M1.2 6.4L6.8 6.4" stroke="#312C27" stroke-opacity="1.000000" stroke-width="1.500000" stroke-linejoin="round" stroke-linecap="round"/>
	</g>
</svg>
