<svg width="122.000000" height="58.000000" viewBox="0 0 122 58" fill="none" xmlns="http://www.w3.org/2000/svg" xmlns:xlink="http://www.w3.org/1999/xlink">
	<desc>
			Created with Pixso.
	</desc>
	<defs/>
	<path id="-30%" d="M82.02 46.18C82.25 46.44 82.64 46.67 83.18 46.86C85.9 42.58 88.56 38.46 91.15 34.51C93.75 30.56 96.34 26.71 98.92 22.96C101.51 19.2 104.11 15.51 106.74 11.89Q110.68 6.45 114.87 0.99C114.48 0.2 113.95 -0.2 113.26 -0.2C113.09 -0.2 112.93 -0.17 112.77 -0.11C112.62 -0.06 112.44 0.04 112.25 0.2C112.06 0.34 111.84 0.55 111.6 0.83C111.37 1.09 111.09 1.44 110.77 1.88C106.66 7.48 102.97 12.6 99.69 17.23C96.42 21.86 93.57 25.94 91.17 29.48C88.77 33.02 86.81 35.99 85.29 38.39C83.78 40.77 82.72 42.52 82.13 43.63C81.83 44.18 81.68 44.68 81.68 45.13C81.68 45.57 81.8 45.92 82.02 46.18ZM78.21 24.8C79.38 25.21 80.64 25.42 81.99 25.42C83.73 25.42 85.25 25.07 86.54 24.37C87.83 23.66 88.9 22.7 89.74 21.5C90.58 20.29 91.21 18.89 91.62 17.29C92.03 15.67 92.23 13.97 92.23 12.18Q92.23 9.41 91.53 7.42C91.07 6.1 90.43 5.01 89.59 4.15C88.78 3.29 87.79 2.65 86.65 2.26C85.51 1.85 84.25 1.64 82.89 1.64C81.17 1.64 79.65 2 78.34 2.71C77.03 3.41 75.93 4.36 75.05 5.56C74.17 6.77 73.51 8.17 73.06 9.77C72.62 11.37 72.39 13.07 72.39 14.87C72.39 16.71 72.64 18.3 73.14 19.64C73.63 20.96 74.3 22.05 75.16 22.91C76.03 23.76 77.04 24.39 78.21 24.8ZM84.68 22.83Q83.63 23.43 82.22 23.43C81.43 23.43 80.67 23.26 79.95 22.93C79.24 22.59 78.61 22.05 78.07 21.3C77.53 20.54 77.09 19.56 76.77 18.35C76.45 17.15 76.3 15.67 76.3 13.93C76.3 12.41 76.42 11.02 76.66 9.75C76.91 8.48 77.28 7.39 77.78 6.48C78.28 5.57 78.92 4.86 79.68 4.35C80.43 3.85 81.33 3.59 82.37 3.59C83.17 3.59 83.94 3.76 84.66 4.1C85.38 4.44 86.02 4.99 86.56 5.74C87.11 6.49 87.55 7.47 87.86 8.67C88.18 9.88 88.35 11.35 88.35 13.1Q88.35 15.37 87.97 17.27C87.73 18.54 87.35 19.62 86.85 20.54C86.34 21.46 85.7 22.17 84.93 22.67Q84.81 22.75 84.68 22.83ZM26.87 34.38C25.66 35.02 24.41 35.57 23.11 36.02L23.29 37.31C23.54 37.28 23.75 37.26 23.92 37.25C24.1 37.24 24.31 37.23 24.54 37.23L25.1 37.23Q26.71 37.23 28.19 37.68Q28.41 37.75 28.64 37.83C29.77 38.22 30.76 38.79 31.6 39.55C32.46 40.29 33.14 41.22 33.64 42.33C34.15 43.42 34.4 44.68 34.4 46.1C34.4 47.45 34.16 48.66 33.68 49.74C33.21 50.81 32.58 51.72 31.8 52.46C31.02 53.21 30.12 53.78 29.11 54.18Q28.08 54.59 27.02 54.72Q26.53 54.78 26.04 54.78C25.29 54.78 24.55 54.67 23.81 54.47C23.08 54.26 22.38 53.95 21.72 53.51C21.06 53.09 20.44 52.55 19.88 51.89C19.32 51.24 18.85 50.45 18.45 49.54C18.04 49.54 17.66 49.62 17.31 49.77C16.96 49.94 16.66 50.16 16.41 50.42C16.15 50.69 15.96 50.98 15.81 51.31C15.67 51.63 15.59 51.96 15.59 52.3C15.59 52.94 15.73 53.5 16.01 53.98C16.27 54.48 16.63 54.9 17.08 55.26C17.53 55.64 18.05 55.95 18.63 56.2C19.22 56.46 19.82 56.66 20.44 56.82C21.06 56.97 21.69 57.08 22.31 57.14C22.94 57.22 23.51 57.25 24.03 57.25C25.26 57.25 26.48 57.11 27.7 56.84C28.93 56.57 30.1 56.19 31.22 55.68C32.34 55.17 33.38 54.55 34.35 53.8C35.31 53.07 36.15 52.23 36.86 51.29C37.57 50.35 38.12 49.31 38.52 48.18C38.93 47.05 39.13 45.84 39.13 44.55C39.13 43.15 38.84 41.91 38.25 40.81C37.67 39.7 36.89 38.77 35.92 38.01C34.96 37.25 33.84 36.67 32.58 36.28C31.31 35.87 30 35.66 28.64 35.66L28.02 35.66C27.96 35.66 27.9 35.67 27.84 35.68L27.81 35.57C28.55 35.23 29.32 34.85 30.1 34.42C30.9 33.97 31.66 33.48 32.4 32.95C33.13 32.41 33.82 31.82 34.47 31.18C35.12 30.54 35.69 29.86 36.17 29.12Q36.55 28.54 36.84 27.92Q37.11 27.34 37.31 26.74C37.6 25.88 37.74 24.98 37.74 24.03C37.74 22.94 37.52 21.99 37.08 21.17C36.64 20.34 36.05 19.65 35.3 19.1C34.56 18.53 33.7 18.11 32.72 17.83C31.75 17.54 30.73 17.4 29.67 17.4C28.9 17.4 28.08 17.48 27.21 17.63C26.36 17.78 25.51 17.99 24.66 18.28C23.83 18.57 23.03 18.93 22.26 19.35Q21.1 19.96 20.22 20.76C19.64 21.29 19.18 21.87 18.83 22.51C18.49 23.14 18.32 23.82 18.32 24.55Q18.32 25.31 18.56 25.91C18.73 26.29 18.95 26.62 19.24 26.88C19.53 27.15 19.87 27.35 20.26 27.48C20.65 27.61 21.08 27.68 21.54 27.68C22.21 27.68 22.91 27.5 23.63 27.15L23.71 26.92C23.13 26.45 22.71 25.89 22.44 25.24C22.18 24.59 22.04 23.91 22.04 23.21C22.04 22.73 22.13 22.27 22.3 21.84C22.48 21.4 22.76 21.01 23.15 20.68C23.53 20.35 24.03 20.08 24.65 19.89C25.27 19.69 26.03 19.58 26.92 19.58C27.79 19.58 28.6 19.72 29.36 19.98C30.12 20.25 30.78 20.63 31.35 21.14C31.91 21.63 32.36 22.24 32.68 22.96C33.02 23.68 33.19 24.5 33.19 25.4C33.19 26.79 32.91 28.03 32.34 29.14C31.79 30.25 31.04 31.24 30.1 32.1Q28.69 33.4 26.87 34.38ZM60.98 18.26C59.56 17.71 58.01 17.43 56.33 17.43C55.13 17.43 53.97 17.6 52.85 17.92C51.73 18.23 50.68 18.69 49.7 19.29C48.73 19.9 47.84 20.63 47.03 21.5C46.23 22.37 45.55 23.35 44.97 24.44C44.4 25.54 43.96 26.74 43.65 28.06C43.34 29.36 43.18 30.75 43.18 32.23C43.18 34.33 43.48 36.17 44.08 37.78C44.69 39.38 45.51 40.72 46.56 41.8C47.62 42.88 48.87 43.68 50.3 44.23C51.73 44.78 53.27 45.06 54.92 45.06C56.13 45.06 57.29 44.9 58.39 44.59C59.5 44.27 60.54 43.82 61.5 43.21C62.48 42.61 63.36 41.88 64.16 41.01C64.95 40.14 65.63 39.16 66.18 38.06C66.75 36.96 67.19 35.75 67.5 34.43C67.81 33.11 67.97 31.69 67.97 30.19C67.97 28.13 67.67 26.31 67.08 24.73C66.51 23.14 65.7 21.81 64.66 20.72C63.64 19.64 62.41 18.82 60.98 18.26ZM59.26 41.89C58.36 42.41 57.33 42.67 56.17 42.67C54.85 42.67 53.65 42.33 52.59 41.66C51.55 40.99 50.65 40.08 49.9 38.95C49.16 37.82 48.58 36.52 48.19 35.05C47.79 33.57 47.59 32.02 47.59 30.42C47.59 28.76 47.78 27.28 48.15 25.98C48.52 24.67 49.04 23.56 49.69 22.65C50.35 21.74 51.12 21.05 52.02 20.58C52.92 20.09 53.89 19.85 54.92 19.85C55.79 19.85 56.6 20 57.36 20.31C58.12 20.61 58.82 21.03 59.46 21.57C60.1 22.11 60.66 22.76 61.16 23.5C61.66 24.25 62.09 25.08 62.44 26C62.79 26.9 63.05 27.87 63.24 28.91C63.43 29.93 63.52 30.99 63.52 32.08C63.52 33.64 63.36 35.07 63.02 36.37C62.69 37.66 62.21 38.77 61.57 39.71C60.95 40.64 60.18 41.37 59.26 41.89ZM107.79 44.35C108.96 44.76 110.21 44.97 111.56 44.97C113.31 44.97 114.83 44.62 116.12 43.92Q117.09 43.38 117.9 42.65Q118.69 41.94 119.31 41.05C120.16 39.84 120.78 38.44 121.19 36.84C121.6 35.22 121.81 33.52 121.81 31.72Q121.81 28.96 121.1 26.97C120.64 25.65 120 24.56 119.17 23.7C118.35 22.83 117.37 22.2 116.22 21.81C115.08 21.4 113.83 21.19 112.47 21.19C110.74 21.19 109.23 21.55 107.91 22.26C106.6 22.96 105.51 23.91 104.63 25.11C103.75 26.32 103.08 27.72 102.64 29.32C102.19 30.92 101.97 32.62 101.97 34.42C101.97 36.26 102.22 37.85 102.71 39.18C103.2 40.51 103.88 41.6 104.73 42.46C105.6 43.31 106.62 43.94 107.79 44.35ZM114.26 42.37Q113.2 42.98 111.8 42.98C111 42.98 110.24 42.81 109.52 42.47C108.81 42.14 108.18 41.59 107.64 40.85C107.1 40.09 106.67 39.11 106.34 37.9C106.03 36.7 105.87 35.22 105.87 33.48C105.87 31.96 105.99 30.57 106.23 29.3C106.49 28.03 106.86 26.94 107.35 26.03C107.86 25.12 108.49 24.41 109.25 23.9C110.01 23.39 110.91 23.14 111.94 23.14C112.75 23.14 113.51 23.31 114.24 23.65C114.96 23.99 115.59 24.53 116.13 25.29Q116.97 26.41 117.43 28.22C117.76 29.42 117.92 30.9 117.92 32.64Q117.92 34.92 117.54 36.82C117.3 38.08 116.93 39.17 116.42 40.09C115.92 41 115.28 41.71 114.51 42.22Q114.39 42.3 114.26 42.37ZM14.91 29.47Q14.85 29.07 14.69 28.65C14.15 28.75 13.55 28.81 12.88 28.85C12.23 28.88 11.57 28.89 10.88 28.89C9.75 28.89 8.69 28.86 7.7 28.81C6.72 28.77 5.82 28.74 4.99 28.74Q3.76 28.74 2.75 28.85C2.09 28.92 1.52 29.07 1.05 29.3C0.58 29.53 0.21 29.86 -0.05 30.3C-0.3 30.73 -0.43 31.31 -0.43 32.05Q0.73 31.72 1.88 31.62C2.65 31.53 3.44 31.49 4.23 31.49Q5.15 31.49 6.04 31.54C6.64 31.57 7.25 31.6 7.86 31.63C8.48 31.67 9.07 31.7 9.65 31.72C10.24 31.75 10.83 31.76 11.42 31.76Q12.38 31.76 13.05 31.71C13.5 31.67 13.87 31.59 14.15 31.47C14.44 31.35 14.65 31.19 14.78 30.98C14.91 30.78 14.98 30.5 14.98 30.15C14.98 29.95 14.96 29.72 14.91 29.47Z" fill="#FFA55C" fill-opacity="1.000000" fill-rule="evenodd"/>
</svg>
