<svg width="28" height="28" viewBox="0 0 28 28" fill="none" xmlns="http://www.w3.org/2000/svg">
<path d="M3.67603 5.56157C1.79513 7.86006 0.666656 10.7982 0.666656 13.9998C0.666656 17.2016 1.79517 20.1397 3.67612 22.4382L8.9201 17.1942C8.33722 16.2692 7.99999 15.1739 7.99999 13.9998C7.99999 12.8258 8.33719 11.7305 8.92002 10.8056L3.67603 5.56157Z" fill="#022C22"/>
<path d="M5.56164 3.67595L10.8056 8.91993C11.7306 8.33706 12.8259 7.99984 14 7.99984C15.1741 7.99984 16.2694 8.33707 17.1944 8.91995L22.4384 3.67596C20.1399 1.79501 17.2017 0.666504 14 0.666504C10.7983 0.666504 7.86014 1.79501 5.56164 3.67595Z" fill="#022C22"/>
<path d="M24.324 5.5616L19.08 10.8056C19.6628 11.7305 20 12.8258 20 13.9998C20 15.1739 19.6628 16.2692 19.0799 17.1942L24.3239 22.4382C26.2048 20.1397 27.3333 17.2015 27.3333 13.9998C27.3333 10.7982 26.2049 7.86008 24.324 5.5616Z" fill="#022C22"/>
<path d="M22.4383 24.3238L17.1943 19.0798C16.2693 19.6626 15.174 19.9998 14 19.9998C12.826 19.9998 11.7307 19.6626 10.8057 19.0798L5.56175 24.3238C7.86023 26.2047 10.7983 27.3332 14 27.3332C17.2017 27.3332 20.1398 26.2047 22.4383 24.3238Z" fill="#022C22"/>
</svg>
