<svg width="26" height="26" viewBox="0 0 26 26" fill="none" xmlns="http://www.w3.org/2000/svg">
<path d="M19.8497 11.4796C19.4972 11.8355 19.2273 12.265 19.0592 12.7374C18.891 13.21 18.8288 13.7139 18.8769 14.2133L18.8601 14.1965C18.9096 14.7844 18.8306 15.376 18.6287 15.9301C18.4268 16.4841 18.1068 16.9873 17.6912 17.4045C17.2755 17.8216 16.7742 18.1428 16.222 18.3453C15.67 18.5479 15.0804 18.6272 14.4947 18.5776L14.5115 18.5944C13.8108 18.529 13.1071 18.6819 12.4962 19.0326C11.8853 19.3832 11.3971 19.9144 11.0981 20.5537C10.7991 21.1931 10.7038 21.9093 10.8252 22.605C10.9468 23.3006 11.2791 23.9417 11.7769 24.4409C12.2747 24.94 12.9138 25.273 13.607 25.3942C14.3004 25.5155 15.0139 25.4192 15.6507 25.1186C16.2875 24.8179 16.8163 24.3275 17.1651 23.7141C17.514 23.1007 17.6658 22.3944 17.6 21.6912L17.6177 21.708C17.5682 21.1202 17.6471 20.5285 17.8491 19.9744C18.051 19.4204 18.371 18.9172 18.7866 18.5C19.2023 18.0829 19.7037 17.7618 20.2557 17.5592C20.8078 17.3566 21.3973 17.2773 21.9831 17.3269L21.9654 17.3101C22.5377 17.3617 23.1139 17.2676 23.6403 17.0363C24.1667 16.805 24.6265 16.4441 24.9769 15.987C25.3274 15.53 25.5573 14.9914 25.6451 14.4216C25.7329 13.8516 25.676 13.2686 25.4796 12.7265C25.2832 12.1845 24.9536 11.7011 24.5214 11.3209C24.0893 10.9408 23.5685 10.6763 23.0073 10.552C22.4461 10.4276 21.8627 10.4474 21.3113 10.6095C20.7598 10.7718 20.258 11.071 19.8525 11.4796H19.8497Z" fill="#929C9A"/>
<path d="M12.9891 16.3936L12.9714 16.3768C13.4692 16.4271 13.972 16.3658 14.4434 16.1972C14.9147 16.0287 15.3429 15.7572 15.6968 15.4022C16.0507 15.0473 16.3217 14.6177 16.4899 14.1448C16.6583 13.6719 16.7198 13.1674 16.67 12.6677L16.6877 12.6845C16.6382 12.0966 16.7172 11.5051 16.919 10.951C17.121 10.3969 17.441 9.89377 17.8566 9.47657C18.2723 9.05946 18.7737 8.7383 19.3257 8.53577C19.8778 8.3331 20.4673 8.25383 21.0531 8.30346L21.0354 8.28666C21.7362 8.35274 22.4401 8.20019 23.0513 7.84995C23.6626 7.49971 24.1512 6.96876 24.4507 6.32955C24.7501 5.69035 24.8458 4.97399 24.7247 4.27818C24.6036 3.58237 24.2716 2.941 23.7739 2.44154C23.2763 1.94208 22.6372 1.60885 21.9438 1.48731C21.2505 1.36576 20.5368 1.46181 19.8998 1.76236C19.2628 2.0629 18.7339 2.55332 18.3848 3.16672C18.0358 3.78011 17.8838 4.48661 17.9497 5.18986L17.9329 5.17213C17.9825 5.76002 17.9036 6.3517 17.7018 6.90584C17.5 7.45998 17.18 7.96322 16.7644 8.38046C16.3487 8.79757 15.8472 9.11873 15.2951 9.32126C14.7429 9.52379 14.1533 9.60294 13.5675 9.55319L13.5843 9.57093C13.0864 9.52062 12.5836 9.58194 12.1123 9.7505C11.6409 9.91897 11.2128 10.1906 10.8588 10.5455C10.5048 10.9005 10.2339 11.33 10.0656 11.8029C9.89736 12.2758 9.83589 12.7803 9.88565 13.28L9.86891 13.2632C9.9182 13.851 9.83905 14.4426 9.63715 14.9966C9.43515 15.5505 9.11523 16.0537 8.69962 16.4708C8.28396 16.8879 7.78266 17.209 7.23064 17.4117C6.67863 17.6143 6.08921 17.6937 5.50349 17.6443L5.52023 17.6611C4.81949 17.595 4.11551 17.7475 3.5043 18.0978C2.89311 18.448 2.40444 18.9789 2.10497 19.6182C1.80549 20.2574 1.70977 20.9737 1.83089 21.6695C1.952 22.3653 2.28405 23.0067 2.78172 23.5062C3.2794 24.0057 3.91848 24.3389 4.6118 24.4604C5.30513 24.5819 6.01893 24.4859 6.65586 24.1853C7.29278 23.8848 7.82183 23.3944 8.17082 22.781C8.51985 22.1676 8.67181 21.4611 8.60597 20.7579L8.62364 20.7747C8.57416 20.1868 8.65321 19.5952 8.85511 19.0411C9.05692 18.4871 9.37694 17.9839 9.79255 17.5667C10.2083 17.1496 10.7096 16.8284 11.2617 16.6259C11.8138 16.4233 12.4032 16.3439 12.9891 16.3936Z" fill="#929C9A"/>
<path d="M6.75621 14.5204C7.1087 14.1646 7.37856 13.7351 7.54656 13.2625C7.71455 12.79 7.77653 12.286 7.72806 11.7867L7.74572 11.8035C7.69624 11.2155 7.77526 10.6236 7.97726 10.0694C8.17927 9.51521 8.4994 9.01196 8.9153 8.59476C9.33119 8.17757 9.83274 7.85652 10.3851 7.65403C10.9374 7.45154 11.5271 7.37248 12.113 7.4224L12.0953 7.4056C12.7958 7.47146 13.4995 7.31887 14.1105 6.96865C14.7214 6.61843 15.2097 6.08762 15.5091 5.44861C15.8084 4.8096 15.904 4.0935 15.7829 3.39795C15.6618 2.7024 15.3298 2.06127 14.8323 1.562C14.3349 1.06272 13.696 0.729594 13.0029 0.608055C12.3099 0.486507 11.5963 0.582472 10.9596 0.882838C10.3229 1.1832 9.79396 1.67336 9.44502 2.28647C9.096 2.89958 8.94394 3.60579 9.0096 4.3088L8.99286 4.292C9.04233 4.87986 8.96328 5.47147 8.76138 6.02553C8.55948 6.5796 8.23958 7.08277 7.8239 7.49993C7.40824 7.91709 6.90686 8.23819 6.35477 8.44076C5.80269 8.64338 5.2132 8.72272 4.62744 8.67306L4.64418 8.68986C4.07183 8.63834 3.49578 8.7327 2.96941 8.96408C2.44305 9.19545 1.9834 9.55646 1.63306 10.0136C1.28272 10.4707 1.05303 11.0092 0.965256 11.5791C0.877491 12.1491 0.934491 12.732 1.13097 13.2739C1.32745 13.8159 1.65707 14.2993 2.08927 14.6793C2.52147 15.0595 3.04227 15.3239 3.60341 15.4482C4.16455 15.5725 4.74787 15.5526 5.29934 15.3904C5.85079 15.2282 6.35252 14.929 6.75806 14.5204H6.75621Z" fill="#929C9A"/>
</svg>
