<svg width="28" height="28" viewBox="0 0 28 28" fill="none" xmlns="http://www.w3.org/2000/svg">
<path fill-rule="evenodd" clip-rule="evenodd" d="M13.6571 27.5378C21.1618 27.5378 27.2454 21.4227 27.2454 13.8793C27.2454 6.33589 21.1618 0.220764 13.6571 0.220764C6.15256 0.220764 0.0689087 6.33589 0.0689087 13.8793C0.0689087 21.4227 6.15256 27.5378 13.6571 27.5378ZM15.7545 10.7737C16.9127 9.60941 16.9127 7.72173 15.7545 6.55741C14.5961 5.3931 12.7182 5.3931 11.5598 6.55741C10.4016 7.72173 10.4016 9.60941 11.5598 10.7737L13.6571 12.8819L15.7545 10.7737ZM16.7467 15.9875C17.9051 17.1518 19.783 17.1518 20.9414 15.9875C22.0996 14.8231 22.0996 12.9355 20.9414 11.7711C19.783 10.6069 17.9051 10.6069 16.7467 11.7711L14.6495 13.8793L16.7467 15.9875ZM15.7545 21.2012C16.9127 20.0369 16.9127 18.1492 15.7545 16.9849L13.6571 14.8768L11.5598 16.9849C10.4016 18.1492 10.4016 20.0369 11.5598 21.2012C12.7182 22.3655 14.5961 22.3655 15.7545 21.2012ZM6.37292 15.9875C5.21463 14.8231 5.21463 12.9355 6.37292 11.7711C7.53127 10.6069 9.40923 10.6069 10.5676 11.7711L12.6648 13.8793L10.5676 15.9875C9.40923 17.1518 7.53127 17.1518 6.37292 15.9875Z" fill="#929C9A"/>
</svg>
