<svg width="59" height="22" viewBox="0 0 59 22" fill="none" xmlns="http://www.w3.org/2000/svg">
<path d="M0 21.307V0.333252H2.93633V21.307H0ZM2.54682 12.3183V9.62164H11.4457V12.3183H2.54682ZM2.54682 3.02988V0.333252H12.7041V3.02988H2.54682Z" fill="white"/>
<path d="M14.7685 21.307V0.333252H17.6149V21.307H14.7685Z" fill="white"/>
<path d="M27.4295 21.6666C25.9314 21.6666 24.6131 21.337 23.4745 20.6778C22.3359 19.9987 21.437 19.0698 20.7779 17.8913C20.1387 16.7128 19.8191 15.3545 19.8191 13.8164C19.8191 12.2783 20.1387 10.92 20.7779 9.74149C21.4171 8.56296 22.3059 7.64411 23.4445 6.98494C24.5831 6.30579 25.8915 5.96621 27.3696 5.96621C28.8478 5.96621 30.1561 6.30579 31.2947 6.98494C32.4333 7.64411 33.3222 8.56296 33.9614 9.74149C34.6006 10.92 34.9202 12.2783 34.9202 13.8164C34.9202 15.3545 34.6006 16.7128 33.9614 17.8913C33.3222 19.0698 32.4333 19.9987 31.2947 20.6778C30.1761 21.337 28.8877 21.6666 27.4295 21.6666ZM27.4295 19.0598C28.3284 19.0598 29.1274 18.8401 29.8265 18.4007C30.5257 17.9412 31.065 17.322 31.4445 16.543C31.844 15.764 32.0438 14.8551 32.0438 13.8164C32.0438 12.7777 31.844 11.8688 31.4445 11.0898C31.065 10.3108 30.5157 9.70154 29.7966 9.26209C29.0775 8.80267 28.2685 8.57295 27.3696 8.57295C26.4508 8.57295 25.6418 8.80267 24.9426 9.26209C24.2435 9.70154 23.6942 10.3108 23.2947 11.0898C22.8952 11.8688 22.6955 12.7777 22.6955 13.8164C22.6955 14.8551 22.8952 15.764 23.2947 16.543C23.6942 17.322 24.2535 17.9412 24.9726 18.4007C25.6917 18.8401 26.5107 19.0598 27.4295 19.0598Z" fill="white"/>
<path d="M50.3944 21.307L55.4581 6.32576H58.3045L53.2109 21.307H50.3944ZM40.297 21.307L45.2708 6.32576H47.8476L42.9337 21.307H40.297ZM40.0873 21.307L34.9937 6.32576H37.8701L42.8139 21.307H40.0873ZM50.3944 21.307L45.4806 6.32576H48.0873L53.0311 21.307H50.3944Z" fill="white"/>
</svg>
