<svg width="239.000000" height="79.000000" viewBox="0 0 239 79" fill="none" xmlns="http://www.w3.org/2000/svg" xmlns:xlink="http://www.w3.org/1999/xlink">
	<desc>
			Created with Pixso.
	</desc>
	<defs/>
	<path id="Форма 2" d="M128.67 64.68C125.94 62.33 123.31 59.82 120.77 57.15C118.29 54.42 115.97 51.63 113.81 48.77C111.72 45.91 109.78 43.02 108 40.1C106.29 37.12 104.82 34.19 103.62 31.34C101.46 33.69 99.3 36.07 97.14 38.48C95.04 40.83 93.17 43.21 91.52 45.63C89.87 47.98 88.53 50.36 87.52 52.77C86.44 55.12 85.9 57.47 85.9 59.82C85.9 62.61 86.38 65.03 87.33 67.06C88.22 69.03 89.42 70.65 90.95 71.92C92.47 73.19 94.22 74.11 96.19 74.68C98.16 75.25 100.19 75.54 102.28 75.54C106.48 75.54 110.92 74.55 115.62 72.58C120.32 70.62 124.67 67.98 128.67 64.68ZM116.86 8.19C116.86 5.97 116.35 4.38 115.34 3.43C114.38 2.41 113.33 1.9 112.19 1.9C111.24 1.9 110.22 2.22 109.14 2.85C108.13 3.49 107.17 4.41 106.29 5.62C105.46 6.76 104.76 8.16 104.19 9.81C103.62 11.46 103.33 13.27 103.33 15.24C103.33 18.86 104 22.7 105.33 26.76C106.92 25.11 108.41 23.49 109.81 21.91C111.21 20.32 112.41 18.76 113.43 17.24C114.51 15.65 115.34 14.13 115.91 12.67C116.54 11.14 116.86 9.65 116.86 8.19ZM153.53 77.73C153.53 77.92 153.41 78.11 153.15 78.3C152.9 78.49 152.52 78.59 152.01 78.59C148.2 77.38 144.45 75.7 140.77 73.54C137.09 71.31 133.5 68.74 130 65.82C127.59 67.66 125.08 69.35 122.48 70.87C119.88 72.39 117.21 73.7 114.48 74.78C111.81 75.86 109.11 76.68 106.38 77.25C103.71 77.82 101.14 78.11 98.66 78.11C96.25 78.11 93.96 77.76 91.81 77.06C89.65 76.43 87.77 75.44 86.19 74.11C84.6 72.71 83.36 71 82.47 68.96C81.52 66.93 81.04 64.55 81.04 61.82C81.04 58.9 81.71 56.04 83.04 53.25C84.38 50.39 86.09 47.59 88.19 44.86C90.28 42.13 92.6 39.47 95.14 36.86C97.74 34.26 100.28 31.72 102.76 29.24C100.92 24.29 100 19.81 100 15.81C100 13.46 100.41 11.3 101.24 9.33C102.13 7.36 103.24 5.68 104.57 4.28C105.9 2.89 107.37 1.81 108.95 1.04C110.6 0.22 112.16 -0.19 113.62 -0.19C115.34 -0.19 116.89 0.38 118.29 1.52C119.69 2.6 120.38 4.41 120.38 6.95C120.38 8.54 119.97 10.19 119.15 11.9C118.38 13.62 117.34 15.4 116 17.24C114.73 19.02 113.21 20.89 111.43 22.86C109.72 24.76 107.91 26.73 106 28.76C108.1 34.54 111.21 40.42 115.34 46.39C119.53 52.29 124.61 57.82 130.58 62.96C133.82 60.04 136.42 56.83 138.39 53.34C140.36 49.85 141.34 46.2 141.34 42.39C141.34 41.12 141.15 39.85 140.77 38.58C140.45 37.24 139.78 35.85 138.77 34.38C138.77 34.26 138.96 34.13 139.34 34C139.72 33.81 140.07 33.72 140.39 33.72C141.28 33.72 141.98 34.04 142.48 34.67C143.06 35.24 143.47 35.94 143.72 36.77C144.04 37.59 144.23 38.45 144.29 39.34C144.42 40.16 144.49 40.83 144.49 41.34C144.49 45.53 143.31 49.59 140.96 53.53C138.67 57.41 135.69 60.96 132 64.2C138.17 69.47 145.12 73.76 152.87 77.06C153.31 77.32 153.53 77.54 153.53 77.73Z" fill="#FFA55C" fill-opacity="1.000000" fill-rule="nonzero"/>
	<path id="Форма 2" d="M17.23 43.72C17.23 41.74 17.11 40.09 16.85 38.78C16.63 37.47 16.31 36.81 15.89 36.81C15.63 36.81 15.39 37 15.17 37.39C14.95 37.74 14.75 38.25 14.59 38.92C14.47 39.56 14.35 40.33 14.26 41.23C14.19 42.09 14.16 43.03 14.16 44.06C14.16 45.88 14.29 47.85 14.55 49.96C14.8 52.04 15.25 54.06 15.89 56.01C16.34 53.96 16.67 51.87 16.9 49.72C17.12 47.55 17.23 45.55 17.23 43.72ZM37.35 21.93C37.35 22.09 37.28 22.22 37.15 22.31C37.03 22.41 36.87 22.52 36.67 22.65C35.71 23.23 34.93 24.03 34.32 25.05C33.71 26.07 33.22 27.19 32.83 28.41C32.48 29.63 32.24 30.87 32.11 32.15C31.99 33.4 31.92 34.55 31.92 35.61C31.92 36.35 31.95 37.26 32.02 38.35C32.11 39.4 32.21 40.57 32.31 41.85C32.43 43.13 32.53 44.49 32.59 45.93C32.69 47.34 32.74 48.78 32.74 50.25C32.74 52.33 32.61 54.35 32.35 56.3C32.13 58.25 31.67 59.99 30.96 61.53C30.29 63.07 29.35 64.3 28.13 65.23C26.91 66.15 25.33 66.62 23.38 66.62C22.48 66.62 21.63 66.44 20.83 66.09C20.07 65.77 19.35 65.31 18.67 64.7C18.03 64.09 17.44 63.39 16.9 62.59C16.39 61.79 15.92 60.91 15.51 59.95C15.09 61.07 14.59 62.11 14.02 63.07C13.47 64.03 12.87 64.86 12.19 65.56C11.52 66.27 10.79 66.81 9.99 67.19C9.19 67.58 8.34 67.77 7.44 67.77C6.07 67.77 4.9 67.42 3.94 66.71C3.01 66.01 2.24 65.08 1.63 63.93C1.03 62.81 0.55 61.53 0.19 60.09C-0.13 58.62 -0.37 57.13 -0.53 55.63C-0.69 54.09 -0.8 52.6 -0.86 51.16C-0.89 49.69 -0.93 48.39 -0.96 47.27C-1.02 45.26 -0.99 43.35 -0.86 41.56C-0.7 39.74 -0.53 38.11 -0.33 36.67C-0.14 35.19 0.05 33.93 0.24 32.87C0.43 31.82 0.56 31.03 0.63 30.52C0.66 30.33 0.85 30.2 1.2 30.14C1.59 30.07 1.92 30.04 2.21 30.04C2.43 30.04 2.63 30.07 2.79 30.14C2.95 30.17 3.03 30.27 3.03 30.43C3.03 30.62 2.95 30.95 2.79 31.43C2.63 31.88 2.39 32.75 2.07 34.03C1.94 34.6 1.79 35.43 1.63 36.52C1.51 37.58 1.38 38.78 1.25 40.12C1.15 41.47 1.07 42.91 1.01 44.44C0.95 45.95 0.91 47.42 0.91 48.86C0.91 49.98 0.96 51.21 1.06 52.55C1.15 53.87 1.31 55.18 1.54 56.49C1.76 57.77 2.07 59.02 2.45 60.23C2.83 61.45 3.3 62.52 3.84 63.45C4.42 64.38 5.09 65.11 5.86 65.66C6.63 66.23 7.52 66.52 8.55 66.52C9.31 66.52 10.02 66.33 10.66 65.95C11.3 65.56 11.89 65.02 12.43 64.31C12.98 63.64 13.46 62.84 13.87 61.91C14.32 60.99 14.72 59.98 15.07 58.89C14.34 56.87 13.79 54.73 13.44 52.46C13.09 50.19 12.91 48.09 12.91 46.17C12.91 44.76 12.96 43.37 13.06 41.99C13.19 40.62 13.36 39.39 13.59 38.3C13.81 37.21 14.1 36.33 14.45 35.66C14.8 34.99 15.22 34.65 15.7 34.65C16.08 34.65 16.42 34.89 16.71 35.37C17.03 35.85 17.28 36.51 17.47 37.34C17.7 38.17 17.86 39.16 17.95 40.31C18.08 41.43 18.15 42.65 18.15 43.96C18.15 46.07 18 48.3 17.71 50.63C17.43 52.94 16.98 55.19 16.37 57.4C16.79 58.52 17.27 59.56 17.81 60.52C18.35 61.45 18.96 62.27 19.63 62.97C20.34 63.67 21.11 64.22 21.94 64.6C22.8 65.02 23.75 65.23 24.77 65.23C26.18 65.23 27.33 64.87 28.23 64.17C29.12 63.5 29.83 62.57 30.34 61.39C30.85 60.17 31.2 58.78 31.39 57.21C31.59 55.61 31.68 53.9 31.68 52.07C31.68 50.44 31.62 48.76 31.49 47.03C31.39 45.31 31.28 43.59 31.15 41.9C31.03 40.17 30.9 38.51 30.77 36.91C30.67 35.27 30.63 33.77 30.63 32.39C30.63 31.4 30.77 30.25 31.06 28.94C31.38 27.63 31.79 26.39 32.31 25.24C32.85 24.06 33.46 23.07 34.13 22.27C34.83 21.43 35.57 21.02 36.34 21.02C36.56 21.02 36.79 21.13 37.01 21.35C37.23 21.55 37.35 21.74 37.35 21.93Z" fill="#1F1711" fill-opacity="1.000000" fill-rule="nonzero"/>
	<path id="Форма 2" d="M52.33 53.8C52.33 53.32 52.25 52.94 52.09 52.65C51.93 52.33 51.68 52.17 51.33 52.17C50.78 52.17 50.37 52.44 50.08 52.99C49.79 53.5 49.66 54.15 49.69 54.95C49.79 56.65 50.09 58.07 50.61 59.23C51.15 58.49 51.57 57.66 51.85 56.73C52.17 55.8 52.33 54.83 52.33 53.8ZM65.29 53.75C65.07 54.23 64.83 54.73 64.57 55.24C64.32 55.72 64.03 56.2 63.71 56.68C62.08 59.11 60.43 60.92 58.77 62.11C57.1 63.29 55.55 63.88 54.11 63.88C52.29 63.88 50.89 63.02 49.93 61.29C48.81 62.41 47.55 63.26 46.14 63.83C44.77 64.41 43.41 64.7 42.06 64.7C41.26 64.7 40.49 64.59 39.76 64.36C39.05 64.14 38.45 63.8 37.93 63.35C37.39 62.87 36.96 62.28 36.64 61.58C36.32 60.84 36.16 59.99 36.16 59.03C36.16 57.88 36.43 56.71 36.97 55.53C37.49 54.31 38.21 53.23 39.13 52.27C40.09 51.27 41.21 50.46 42.49 49.82C43.77 49.18 45.17 48.86 46.67 48.86C47.89 48.86 48.83 49.03 49.5 49.39C50.17 49.71 50.51 50.01 50.51 50.3C50.51 50.43 50.45 50.52 50.32 50.59C50.19 50.65 50.08 50.68 49.98 50.68C49.95 50.65 49.92 50.63 49.89 50.63L49.84 50.63C49.45 50.28 49.02 50.01 48.54 49.82C48.06 49.59 47.36 49.48 46.43 49.48C45.18 49.48 44.05 49.75 43.02 50.3C42.03 50.81 41.18 51.5 40.48 52.36C39.77 53.19 39.23 54.12 38.85 55.15C38.46 56.17 38.27 57.18 38.27 58.17C38.27 60.09 38.72 61.48 39.61 62.35C40.51 63.21 41.63 63.64 42.97 63.64C44.06 63.64 45.2 63.37 46.38 62.83C47.57 62.28 48.62 61.51 49.55 60.52C49.04 59.37 48.78 57.87 48.78 56.01C48.78 54.79 49.01 53.74 49.45 52.84C49.9 51.95 50.54 51.5 51.37 51.5C52.53 51.5 53.1 52.17 53.1 53.51C53.1 54.86 52.91 56.07 52.53 57.16C52.14 58.22 51.63 59.18 50.99 60.04C51.89 61.71 53.13 62.54 54.73 62.54C55.95 62.54 57.25 62.03 58.62 61C60.03 59.98 61.41 58.49 62.75 56.54C63.07 56.06 63.36 55.56 63.61 55.05C63.87 54.54 64.13 54.03 64.38 53.51L65.29 53.75L65.29 53.75Z" fill="#1F1711" fill-opacity="1.000000" fill-rule="nonzero"/>
	<path id="Форма 2" d="M71.96 32.3C71.96 30.47 71.66 29.02 71.05 27.93C70.47 26.81 69.5 26.25 68.12 26.25C67.64 26.25 67.19 26.41 66.78 26.73C66.39 27.02 66.06 27.42 65.77 27.93C65.48 28.44 65.26 29.03 65.1 29.71C64.94 30.38 64.86 31.1 64.86 31.87C64.86 33.98 64.87 35.9 64.91 37.63C64.94 39.35 64.97 40.99 65 42.52C65.07 44.06 65.13 45.55 65.19 46.99C65.26 48.43 65.32 49.9 65.39 51.4C66.31 50.15 67.18 48.73 67.98 47.13C68.78 45.5 69.47 43.83 70.04 42.14C70.65 40.41 71.11 38.7 71.43 37C71.79 35.31 71.96 33.74 71.96 32.3ZM89.34 53.75C89.11 54.23 88.87 54.73 88.62 55.24C88.39 55.75 88.11 56.23 87.75 56.68C85.99 59.18 83.99 61.15 81.75 62.59C79.51 63.99 77.29 64.7 75.08 64.7C73.71 64.7 72.39 64.38 71.15 63.74C69.9 63.13 68.79 62.14 67.83 60.76C67.71 60.6 67.64 60.46 67.64 60.33C67.64 60.04 67.83 59.9 68.22 59.9C68.25 59.9 68.36 59.93 68.55 59.99C68.81 59.99 69.1 60.09 69.42 60.28C69.77 60.44 70.27 60.52 70.91 60.52C71.9 60.52 72.83 60.35 73.69 59.99C74.55 59.64 75.29 59.19 75.9 58.65C76.54 58.07 77.03 57.43 77.39 56.73C77.74 55.99 77.91 55.24 77.91 54.47C77.91 53.51 77.66 52.68 77.15 51.98C76.67 51.27 75.83 50.92 74.65 50.92C73.43 50.92 72.31 51.35 71.29 52.22C70.27 53.05 69.34 54.07 68.51 55.29C67.71 56.47 67.02 57.74 66.44 59.08C65.87 60.39 65.43 61.55 65.15 62.54C64.99 63.08 64.84 63.42 64.71 63.55C64.59 63.67 64.44 63.74 64.28 63.74C63.93 63.74 63.77 63.4 63.8 62.73C63.8 62.44 63.82 62.09 63.85 61.67C63.88 61.26 63.91 60.81 63.95 60.33C63.95 59.85 63.96 59.37 63.99 58.89C64.03 58.38 64.04 57.91 64.04 57.5C64.04 56.06 64.01 54.41 63.95 52.55C63.88 50.67 63.8 48.73 63.71 46.75C63.61 44.73 63.53 42.73 63.47 40.75C63.4 38.76 63.37 36.94 63.37 35.27C63.37 33.96 63.47 32.7 63.66 31.48C63.85 30.23 64.15 29.15 64.57 28.22C64.99 27.26 65.51 26.51 66.15 25.96C66.79 25.39 67.55 25.1 68.41 25.1C69.31 25.1 70.06 25.26 70.67 25.58C71.31 25.87 71.82 26.3 72.2 26.87C72.59 27.42 72.86 28.09 73.02 28.89C73.21 29.66 73.31 30.51 73.31 31.43C73.31 33.03 73.08 34.79 72.63 36.71C72.19 38.6 71.59 40.51 70.86 42.43C70.12 44.35 69.27 46.2 68.31 47.99C67.39 49.75 66.43 51.29 65.43 52.6C65.5 53.56 65.53 54.55 65.53 55.58C65.56 56.6 65.61 57.69 65.67 58.84C66.47 57.11 67.35 55.63 68.31 54.38C68.73 53.83 69.19 53.31 69.71 52.79C70.25 52.25 70.81 51.77 71.39 51.35C71.99 50.94 72.63 50.6 73.31 50.35C74.01 50.09 74.75 49.96 75.51 49.96C76.73 49.96 77.79 50.27 78.68 50.87C79.58 51.48 80.03 52.46 80.03 53.8C80.03 55.08 79.71 56.17 79.07 57.07C78.46 57.96 77.69 58.71 76.76 59.32C75.83 59.9 74.84 60.33 73.79 60.62C72.73 60.91 71.77 61.08 70.91 61.15C70.84 61.15 70.81 61.16 70.81 61.19C70.81 61.26 70.86 61.35 70.95 61.48C71.59 62.22 72.31 62.75 73.11 63.07C73.91 63.39 74.75 63.55 75.61 63.55C76.67 63.55 77.74 63.35 78.83 62.97C79.91 62.55 80.95 62.03 81.95 61.39C82.94 60.71 83.85 59.96 84.68 59.13C85.55 58.27 86.25 57.4 86.79 56.54C87.11 56.06 87.4 55.56 87.66 55.05C87.91 54.54 88.17 54.03 88.43 53.51L89.34 53.75L89.34 53.75Z" fill="#1F1711" fill-opacity="1.000000" fill-rule="nonzero"/>
	<path id="Форма 2" d="M96.1 50.78C96.1 49.91 95.88 49.21 95.43 48.67C95.02 48.09 94.33 47.8 93.37 47.8C92.86 47.8 92.39 47.96 91.98 48.28C91.56 48.6 91.21 49.03 90.92 49.58C90.63 50.09 90.41 50.7 90.25 51.4C90.09 52.11 90.01 52.84 90.01 53.61C90.01 54.83 90.14 55.91 90.39 56.87C90.68 57.8 91.08 58.62 91.59 59.32C92.26 58.78 92.87 58.15 93.42 57.45C93.96 56.75 94.42 56.01 94.81 55.24C95.22 54.47 95.54 53.71 95.77 52.94C95.99 52.17 96.1 51.45 96.1 50.78ZM108.25 53.75C108.03 54.23 107.79 54.73 107.53 55.24C107.3 55.72 107.02 56.2 106.67 56.68C105.1 58.92 103.3 60.62 101.29 61.77C99.3 62.89 97.4 63.45 95.58 63.45C94.55 63.45 93.59 63.27 92.7 62.92C91.83 62.57 91.08 62.04 90.44 61.34C89.8 60.63 89.29 59.75 88.9 58.7C88.52 57.64 88.33 56.39 88.33 54.95C88.33 53.99 88.47 53.03 88.76 52.07C89.05 51.11 89.43 50.25 89.91 49.48C90.42 48.71 91 48.09 91.64 47.61C92.31 47.13 93.02 46.89 93.75 46.89C94.94 46.89 95.8 47.24 96.34 47.95C96.89 48.62 97.16 49.48 97.16 50.54C97.16 51.98 96.71 53.55 95.82 55.24C94.95 56.91 93.7 58.46 92.07 59.9C93.29 61.27 94.86 61.96 96.78 61.96C98.22 61.96 99.72 61.53 101.29 60.67C102.86 59.77 104.33 58.39 105.7 56.54C106.06 56.09 106.34 55.61 106.57 55.1C106.82 54.55 107.08 54.03 107.34 53.51L108.25 53.75L108.25 53.75Z" fill="#1F1711" fill-opacity="1.000000" fill-rule="nonzero"/>
	<path id="Форма 2" d="M149.83 41.66C148.65 41.66 147.51 41.79 146.43 42.04C145.37 42.3 144.43 42.6 143.59 42.95C142.79 43.31 142.14 43.67 141.63 44.06C141.15 44.44 140.91 44.78 140.91 45.07C140.91 45.45 141.35 45.64 142.25 45.64C143.79 45.64 145.24 45.27 146.62 44.54C148.03 43.8 149.29 42.84 150.41 41.66L149.83 41.66L149.83 41.66ZM163.8 48.86C163.8 50.43 163.35 52.12 162.46 53.95C161.59 55.77 160.39 57.58 158.86 59.37C157.32 61.16 155.5 62.89 153.39 64.55C151.27 66.22 149 67.69 146.57 68.97C144.14 70.25 141.58 71.26 138.89 71.99C136.2 72.76 133.51 73.15 130.83 73.15C130.38 73.15 129.88 73.13 129.34 73.1C128.83 73.07 128.35 72.99 127.9 72.86C127.45 72.76 127.07 72.59 126.75 72.33C126.43 72.11 126.27 71.79 126.27 71.37C126.27 70.79 126.55 70.23 127.13 69.69C127.71 69.18 128.44 68.7 129.34 68.25C130.23 67.8 131.21 67.4 132.27 67.05C133.32 66.7 134.33 66.39 135.29 66.14C136.28 65.88 137.15 65.67 137.88 65.51C138.62 65.39 139.11 65.32 139.37 65.32C139.56 65.32 139.71 65.37 139.8 65.47C139.9 65.56 139.95 65.66 139.95 65.75C139.95 65.91 139.87 65.99 139.71 65.99L139.08 65.99C138.25 65.99 137.19 66.15 135.91 66.47C134.63 66.79 133.39 67.19 132.17 67.67C130.95 68.15 129.91 68.68 129.05 69.26C128.19 69.87 127.75 70.43 127.75 70.94C127.75 71.29 127.87 71.56 128.09 71.75C128.35 71.98 128.65 72.15 129 72.28C129.35 72.41 129.72 72.49 130.11 72.52C130.49 72.59 130.83 72.62 131.11 72.62C133.39 72.62 135.71 72.23 138.07 71.47C140.47 70.7 142.79 69.67 145.03 68.39C147.31 67.15 149.43 65.69 151.42 64.03C153.43 62.39 155.19 60.7 156.7 58.94C158.2 57.15 159.39 55.37 160.25 53.61C161.11 51.82 161.55 50.15 161.55 48.62C161.55 46.73 160.76 45.16 159.19 43.91C157.66 42.63 155.11 41.9 151.56 41.71C150.12 43.05 148.54 44.14 146.81 44.97C145.11 45.8 143.39 46.22 141.63 46.22C140.38 46.22 139.75 45.91 139.75 45.31C139.75 44.92 140.01 44.49 140.52 44.01C141.07 43.5 141.8 43.02 142.73 42.57C143.69 42.12 144.83 41.75 146.14 41.47C147.45 41.15 148.89 40.99 150.46 40.99L151.03 40.99C152.09 39.74 152.94 38.38 153.58 36.91C154.22 35.4 154.54 33.93 154.54 32.49C154.54 31.53 154.36 30.62 154.01 29.75C153.69 28.86 153.15 28.09 152.38 27.45C151.64 26.81 150.67 26.3 149.45 25.91C148.27 25.53 146.83 25.34 145.13 25.34C143.98 25.34 142.38 25.5 140.33 25.82C138.31 26.14 136.12 26.63 133.75 27.31C131.42 27.95 129.03 28.76 126.6 29.75C124.17 30.75 121.96 31.9 119.98 33.21C117.99 34.52 116.38 36.01 115.13 37.67C113.88 39.34 113.26 41.18 113.26 43.19C113.26 43.45 113.21 43.67 113.11 43.87C113.02 44.03 112.92 44.11 112.83 44.11C112.7 44.11 112.6 43.98 112.54 43.72C112.44 43.43 112.39 42.97 112.39 42.33C112.68 40.25 113.53 38.36 114.94 36.67C116.35 34.97 118.09 33.47 120.17 32.15C122.22 30.81 124.47 29.66 126.94 28.7C129.4 27.74 131.83 26.95 134.23 26.35C136.67 25.71 138.92 25.24 141 24.95C143.11 24.63 144.84 24.47 146.19 24.47C148.14 24.47 149.79 24.67 151.13 25.05C152.51 25.4 153.63 25.9 154.49 26.54C155.35 27.15 155.98 27.88 156.36 28.75C156.75 29.61 156.94 30.52 156.94 31.48C156.94 33.05 156.51 34.68 155.64 36.38C154.81 38.04 153.67 39.59 152.23 41.03C154.28 41.13 156.04 41.4 157.51 41.85C158.99 42.27 160.19 42.83 161.11 43.53C162.04 44.2 162.71 45 163.13 45.93C163.58 46.83 163.8 47.8 163.8 48.86ZM138.36 61.48C138.36 61.93 138.33 62.25 138.27 62.44C138.2 62.63 138.03 62.73 137.74 62.73C137.1 62.79 136.78 62.15 136.78 60.81C136.75 56.39 136.7 52.36 136.63 48.71C136.6 45.07 136.55 41.91 136.49 39.26C136.46 36.57 136.43 34.44 136.39 32.87C136.36 31.31 136.35 30.41 136.35 30.19C136.35 29.93 136.43 29.75 136.59 29.66C136.75 29.56 136.94 29.48 137.16 29.42C137.42 29.42 137.61 29.5 137.74 29.66C137.9 29.82 137.98 30.01 137.98 30.23C137.98 32.79 137.99 35.43 138.03 38.15C138.06 40.84 138.09 43.53 138.12 46.22C138.19 48.91 138.23 51.55 138.27 54.14C138.33 56.73 138.36 59.18 138.36 61.48Z" fill="#1F1711" fill-opacity="1.000000" fill-rule="nonzero"/>
	<path id="Форма 2" d="M182.46 53.8C182.46 53.32 182.38 52.94 182.22 52.65C182.06 52.33 181.8 52.17 181.45 52.17C180.91 52.17 180.49 52.44 180.2 52.99C179.92 53.5 179.79 54.15 179.82 54.95C179.92 56.65 180.22 58.07 180.73 59.23C181.28 58.49 181.69 57.66 181.98 56.73C182.3 55.8 182.46 54.83 182.46 53.8ZM195.42 53.75C195.2 54.23 194.96 54.73 194.7 55.24C194.44 55.72 194.16 56.2 193.84 56.68C192.2 59.11 190.56 60.92 188.89 62.11C187.23 63.29 185.68 63.88 184.24 63.88C182.41 63.88 181.02 63.02 180.06 61.29C178.94 62.41 177.68 63.26 176.27 63.83C174.89 64.41 173.53 64.7 172.19 64.7C171.39 64.7 170.62 64.59 169.88 64.36C169.18 64.14 168.57 63.8 168.06 63.35C167.52 62.87 167.08 62.28 166.76 61.58C166.44 60.84 166.28 59.99 166.28 59.03C166.28 57.88 166.56 56.71 167.1 55.53C167.61 54.31 168.33 53.23 169.26 52.27C170.22 51.27 171.34 50.46 172.62 49.82C173.9 49.18 175.29 48.86 176.8 48.86C178.01 48.86 178.96 49.03 179.63 49.39C180.3 49.71 180.64 50.01 180.64 50.3C180.64 50.43 180.57 50.52 180.44 50.59C180.32 50.65 180.2 50.68 180.11 50.68C180.08 50.65 180.04 50.63 180.01 50.63L179.96 50.63C179.58 50.28 179.15 50.01 178.67 49.82C178.19 49.59 177.48 49.48 176.56 49.48C175.31 49.48 174.17 49.75 173.15 50.3C172.16 50.81 171.31 51.5 170.6 52.36C169.9 53.19 169.36 54.12 168.97 55.15C168.59 56.17 168.4 57.18 168.4 58.17C168.4 60.09 168.84 61.48 169.74 62.35C170.64 63.21 171.76 63.64 173.1 63.64C174.19 63.64 175.32 63.37 176.51 62.83C177.69 62.28 178.75 61.51 179.68 60.52C179.16 59.37 178.91 57.87 178.91 56.01C178.91 54.79 179.13 53.74 179.58 52.84C180.03 51.95 180.67 51.5 181.5 51.5C182.65 51.5 183.23 52.17 183.23 53.51C183.23 54.86 183.04 56.07 182.65 57.16C182.27 58.22 181.76 59.18 181.12 60.04C182.01 61.71 183.26 62.54 184.86 62.54C186.08 62.54 187.37 62.03 188.75 61C190.16 59.98 191.53 58.49 192.88 56.54C193.2 56.06 193.48 55.56 193.74 55.05C194 54.54 194.25 54.03 194.51 53.51L195.42 53.75L195.42 53.75Z" fill="#1F1711" fill-opacity="1.000000" fill-rule="nonzero"/>
	<path id="Форма 2" d="M202.09 32.3C202.09 30.47 201.78 29.02 201.18 27.93C200.6 26.81 199.62 26.25 198.25 26.25C197.77 26.25 197.32 26.41 196.9 26.73C196.52 27.02 196.18 27.42 195.9 27.93C195.61 28.44 195.38 29.03 195.22 29.71C195.06 30.38 194.98 31.1 194.98 31.87C194.98 33.98 195 35.9 195.03 37.63C195.06 39.35 195.1 40.99 195.13 42.52C195.19 44.06 195.26 45.55 195.32 46.99C195.38 48.43 195.45 49.9 195.51 51.4C196.44 50.15 197.3 48.73 198.1 47.13C198.9 45.5 199.59 43.83 200.17 42.14C200.78 40.41 201.24 38.7 201.56 37C201.91 35.31 202.09 33.74 202.09 32.3ZM219.46 53.75C219.24 54.23 219 54.73 218.74 55.24C218.52 55.75 218.23 56.23 217.88 56.68C216.12 59.18 214.12 61.15 211.88 62.59C209.64 63.99 207.42 64.7 205.21 64.7C203.83 64.7 202.52 64.38 201.27 63.74C200.02 63.13 198.92 62.14 197.96 60.76C197.83 60.6 197.77 60.46 197.77 60.33C197.77 60.04 197.96 59.9 198.34 59.9C198.38 59.9 198.49 59.93 198.68 59.99C198.94 59.99 199.22 60.09 199.54 60.28C199.9 60.44 200.39 60.52 201.03 60.52C202.02 60.52 202.95 60.35 203.82 59.99C204.68 59.64 205.42 59.19 206.02 58.65C206.66 58.07 207.16 57.43 207.51 56.73C207.86 55.99 208.04 55.24 208.04 54.47C208.04 53.51 207.78 52.68 207.27 51.98C206.79 51.27 205.96 50.92 204.78 50.92C203.56 50.92 202.44 51.35 201.42 52.22C200.39 53.05 199.46 54.07 198.63 55.29C197.83 56.47 197.14 57.74 196.57 59.08C195.99 60.39 195.56 61.55 195.27 62.54C195.11 63.08 194.97 63.42 194.84 63.55C194.71 63.67 194.57 63.74 194.41 63.74C194.06 63.74 193.9 63.4 193.93 62.73C193.93 62.44 193.94 62.09 193.98 61.67C194.01 61.26 194.04 60.81 194.07 60.33C194.07 59.85 194.09 59.37 194.12 58.89C194.15 58.38 194.17 57.91 194.17 57.5C194.17 56.06 194.14 54.41 194.07 52.55C194.01 50.67 193.93 48.73 193.83 46.75C193.74 44.73 193.66 42.73 193.59 40.75C193.53 38.76 193.5 36.94 193.5 35.27C193.5 33.96 193.59 32.7 193.78 31.48C193.98 30.23 194.28 29.15 194.7 28.22C195.11 27.26 195.64 26.51 196.28 25.96C196.92 25.39 197.67 25.1 198.54 25.1C199.43 25.1 200.18 25.26 200.79 25.58C201.43 25.87 201.94 26.3 202.33 26.87C202.71 27.42 202.98 28.09 203.14 28.89C203.34 29.66 203.43 30.51 203.43 31.43C203.43 33.03 203.21 34.79 202.76 36.71C202.31 38.6 201.72 40.51 200.98 42.43C200.25 44.35 199.4 46.2 198.44 47.99C197.51 49.75 196.55 51.29 195.56 52.6C195.62 53.56 195.66 54.55 195.66 55.58C195.69 56.6 195.74 57.69 195.8 58.84C196.6 57.11 197.48 55.63 198.44 54.38C198.86 53.83 199.32 53.31 199.83 52.79C200.38 52.25 200.94 51.77 201.51 51.35C202.12 50.94 202.76 50.6 203.43 50.35C204.14 50.09 204.87 49.96 205.64 49.96C206.86 49.96 207.91 50.27 208.81 50.87C209.7 51.48 210.15 52.46 210.15 53.8C210.15 55.08 209.83 56.17 209.19 57.07C208.58 57.96 207.82 58.71 206.89 59.32C205.96 59.9 204.97 60.33 203.91 60.62C202.86 60.91 201.9 61.08 201.03 61.15C200.97 61.15 200.94 61.16 200.94 61.19C200.94 61.26 200.98 61.35 201.08 61.48C201.72 62.22 202.44 62.75 203.24 63.07C204.04 63.39 204.87 63.55 205.74 63.55C206.79 63.55 207.86 63.35 208.95 62.97C210.04 62.55 211.08 62.03 212.07 61.39C213.06 60.71 213.98 59.96 214.81 59.13C215.67 58.27 216.38 57.4 216.92 56.54C217.24 56.06 217.53 55.56 217.78 55.05C218.04 54.54 218.3 54.03 218.55 53.51L219.46 53.75L219.46 53.75Z" fill="#1F1711" fill-opacity="1.000000" fill-rule="nonzero"/>
	<path id="Форма 2" d="M226.23 50.78C226.23 49.91 226.01 49.21 225.56 48.67C225.14 48.09 224.45 47.8 223.49 47.8C222.98 47.8 222.52 47.96 222.1 48.28C221.69 48.6 221.33 49.03 221.05 49.58C220.76 50.09 220.53 50.7 220.37 51.4C220.21 52.11 220.13 52.84 220.13 53.61C220.13 54.83 220.26 55.91 220.52 56.87C220.81 57.8 221.21 58.62 221.72 59.32C222.39 58.78 223 58.15 223.54 57.45C224.09 56.75 224.55 56.01 224.93 55.24C225.35 54.47 225.67 53.71 225.89 52.94C226.12 52.17 226.23 51.45 226.23 50.78ZM238.37 53.75C238.15 54.23 237.91 54.73 237.65 55.24C237.43 55.72 237.14 56.2 236.79 56.68C235.22 58.92 233.43 60.62 231.41 61.77C229.43 62.89 227.53 63.45 225.7 63.45C224.68 63.45 223.72 63.27 222.82 62.92C221.96 62.57 221.21 62.04 220.57 61.34C219.93 60.63 219.41 59.75 219.03 58.7C218.65 57.64 218.45 56.39 218.45 54.95C218.45 53.99 218.6 53.03 218.89 52.07C219.17 51.11 219.56 50.25 220.04 49.48C220.55 48.71 221.13 48.09 221.77 47.61C222.44 47.13 223.14 46.89 223.88 46.89C225.06 46.89 225.93 47.24 226.47 47.95C227.01 48.62 227.29 49.48 227.29 50.54C227.29 51.98 226.84 53.55 225.94 55.24C225.08 56.91 223.83 58.46 222.2 59.9C223.41 61.27 224.98 61.96 226.9 61.96C228.34 61.96 229.85 61.53 231.41 60.67C232.98 59.77 234.45 58.39 235.83 56.54C236.18 56.09 236.47 55.61 236.69 55.1C236.95 54.55 237.21 54.03 237.46 53.51L238.37 53.75L238.37 53.75Z" fill="#1F1711" fill-opacity="1.000000" fill-rule="nonzero"/>
</svg>
